<svg width="188" height="34" viewBox="0 0 188 34" fill="none" xmlns="http://www.w3.org/2000/svg" data-v-c46f2d3e=""><path d="M112.886 9.31834C115.697 9.31834 117.959 10.1671 119.673 11.8648C121.416 13.5624 122.287 16.0805 122.287 19.4191V32.4907H115.711V20.4376C115.711 18.6269 115.317 17.2829 114.53 16.4058C113.743 15.5004 112.605 15.0478 111.116 15.0478C109.458 15.0478 108.137 15.5712 107.153 16.618C106.17 17.6366 105.678 19.1644 105.678 21.2016V32.4907H99.102V1H105.678V12.0345C106.549 11.1574 107.603 10.4925 108.84 10.0398C110.076 9.55879 111.425 9.31834 112.886 9.31834Z" fill="#1F1F1F" data-v-c46f2d3e=""></path><path d="M14.7844 31.3873C14.1381 31.8683 13.3371 32.2361 12.3816 32.4907C11.4542 32.7171 10.4847 32.8302 9.47296 32.8302C6.74701 32.8302 4.65336 32.137 3.19196 30.7507C1.73063 29.3643 1 27.3271 1 24.6393V4.60742H7.57602V10.1671H13.1825V15.26H7.57602V24.5544C7.57602 25.5164 7.81492 26.2661 8.29266 26.8037C8.77039 27.313 9.4589 27.5677 10.3582 27.5677C11.3699 27.5677 12.2692 27.2847 13.0561 26.7189L14.7844 31.3873Z" fill="#1F1F1F" data-v-c46f2d3e=""></path><path fill-rule="evenodd" clip-rule="evenodd" d="M22.1406 31.3448C24.0516 32.3351 26.2015 32.8302 28.5902 32.8302C30.9789 32.8302 33.1148 32.3351 34.9976 31.3448C36.8805 30.3263 38.3559 28.9257 39.4238 27.1433C40.4918 25.3607 41.0257 23.3377 41.0257 21.0742C41.0257 18.8108 40.4918 16.7878 39.4238 15.0053C38.3559 13.2228 36.8805 11.8364 34.9976 10.8462C33.1148 9.82757 30.9789 9.31834 28.5902 9.31834C26.2015 9.31834 24.0516 9.82757 22.1406 10.8462C20.2577 11.8364 18.7824 13.2228 17.7144 15.0053C16.6465 16.7878 16.1126 18.8108 16.1126 21.0742C16.1126 23.3377 16.6465 25.3607 17.7144 27.1433C18.7824 28.9257 20.2577 30.3263 22.1406 31.3448ZM32.7213 25.7003C31.6534 26.832 30.2764 27.3979 28.5902 27.3979C26.904 27.3979 25.513 26.832 24.417 25.7003C23.3209 24.5402 22.7729 22.9982 22.7729 21.0742C22.7729 19.1503 23.3209 17.6224 24.417 16.4907C25.513 15.3307 26.904 14.7507 28.5902 14.7507C30.2764 14.7507 31.6534 15.3307 32.7213 16.4907C33.8173 17.6224 34.3653 19.1503 34.3653 21.0742C34.3653 22.9982 33.8173 24.5402 32.7213 25.7003Z" fill="#1F1F1F" data-v-c46f2d3e=""></path><path d="M62.03 32.4907H68.2688V9.65785H61.6927V20.9469C61.6927 22.9841 61.215 24.5261 60.2595 25.573C59.304 26.5915 58.0394 27.1008 56.4657 27.1008C53.4024 27.1008 51.8708 25.2617 51.8708 21.5835V9.65785H45.2948V22.5597C45.2948 25.9549 46.166 28.5155 47.9083 30.2414C49.6507 31.9672 52.0114 32.8302 54.9903 32.8302C56.3954 32.8302 57.7022 32.5756 58.9106 32.0663C60.119 31.5288 61.1588 30.7648 62.03 29.7745V32.4907Z" fill="#1F1F1F" data-v-c46f2d3e=""></path><path d="M78.7873 31.3448C80.7263 32.3351 82.9043 32.8302 85.3212 32.8302C87.7099 32.8302 89.7895 32.3209 91.56 31.3024C93.3585 30.2838 94.6653 28.8691 95.4803 27.0584L90.3797 24.2573C89.2274 26.351 87.5272 27.3979 85.279 27.3979C83.5647 27.3979 82.1455 26.832 81.0214 25.7003C79.8973 24.5685 79.3353 23.0265 79.3353 21.0742C79.3353 19.122 79.8973 17.58 81.0214 16.4483C82.1455 15.3165 83.5647 14.7507 85.279 14.7507C87.4991 14.7507 89.1994 15.7975 90.3797 17.8912L95.4803 15.1326C94.6653 13.2653 93.3585 11.8364 91.56 10.8462C89.7895 9.82757 87.7099 9.31834 85.3212 9.31834C82.9043 9.31834 80.7263 9.82757 78.7873 10.8462C76.8763 11.8364 75.3727 13.2228 74.2768 15.0053C73.2088 16.7878 72.6749 18.8108 72.6749 21.0742C72.6749 23.3377 73.2088 25.3607 74.2768 27.1433C75.3727 28.9257 76.8763 30.3263 78.7873 31.3448Z" fill="#1F1F1F" data-v-c46f2d3e=""></path><path d="M133.773 4.81016C131.762 6.08254 130.145 7.74071 128.922 9.78474C127.545 12.1048 126.856 14.7219 126.856 17.6362C126.856 20.5504 127.545 23.1818 128.922 25.5301C130.327 27.8502 132.252 29.6751 134.697 31.0049C137.17 32.3347 139.938 32.9996 143.001 32.9996C146.065 32.9996 148.819 32.3347 151.264 31.0049C153.709 29.6751 155.634 27.8502 157.039 25.5301C158.444 23.1818 159.147 20.5504 159.147 17.6362C159.147 14.7219 158.444 12.1048 157.039 9.78474C155.825 7.75591 154.223 6.1072 152.233 4.83862V17.4757C152.233 17.529 152.233 17.5825 152.233 17.6362C152.233 19.4753 151.826 21.1163 151.011 22.5592C150.224 24.0022 149.128 25.134 147.723 25.9545C146.318 26.7467 144.744 27.1428 143.001 27.1428C141.259 27.1428 139.685 26.7467 138.28 25.9545C136.875 25.134 135.765 24.0022 134.95 22.5592C134.163 21.1163 133.77 19.4753 133.77 17.6362C133.77 17.5421 133.771 17.4487 133.773 17.3556V4.81016Z" fill="url(#paint0_linear_716_1604)" data-v-c46f2d3e=""></path><path d="M184.386 11.8643C182.672 10.1667 180.41 9.31792 177.6 9.31792C176.054 9.31792 174.635 9.5867 173.342 10.1242C172.049 10.6335 170.967 11.3692 170.096 12.3312V9.65743H163.815V32.4903H170.391V21.2012C170.391 19.164 170.883 17.6362 171.867 16.6176C172.85 15.5708 174.171 15.0474 175.829 15.0474C177.319 15.0474 178.457 15.5 179.243 16.4054C180.03 17.2825 180.424 18.6265 180.424 20.4372V32.4903H187V19.4187C187 16.08 186.129 13.562 184.386 11.8643Z" fill="url(#paint1_linear_716_1604)" data-v-c46f2d3e=""></path><path d="M143.002 2.27148C141.139 2.27148 139.543 2.57887 139.543 2.57887V13.6276C139.543 15.5507 141.092 17.1097 143.002 17.1097C144.912 17.1097 146.46 15.5507 146.46 13.6276V2.57887C146.46 2.57887 144.864 2.27148 143.002 2.27148Z" fill="url(#paint2_linear_716_1604)" data-v-c46f2d3e=""></path><defs data-v-c46f2d3e=""><linearGradient id="paint0_linear_716_1604" x1="133.5" y1="7.99962" x2="188.906" y2="27.6181" gradientUnits="userSpaceOnUse" data-v-c46f2d3e=""><stop stop-color="#8ED078" data-v-c46f2d3e=""></stop><stop offset="1" stop-color="#19B58F" data-v-c46f2d3e=""></stop></linearGradient><linearGradient id="paint1_linear_716_1604" x1="133.5" y1="7.99962" x2="188.906" y2="27.6181" gradientUnits="userSpaceOnUse" data-v-c46f2d3e=""><stop stop-color="#8ED078" data-v-c46f2d3e=""></stop><stop offset="1" stop-color="#19B58F" data-v-c46f2d3e=""></stop></linearGradient><linearGradient id="paint2_linear_716_1604" x1="133.5" y1="7.99962" x2="188.906" y2="27.6181" gradientUnits="userSpaceOnUse" data-v-c46f2d3e=""><stop stop-color="#8ED078" data-v-c46f2d3e=""></stop><stop offset="1" stop-color="#19B58F" data-v-c46f2d3e=""></stop></linearGradient></defs></svg>